<svg width="56" height="58" viewBox="0 0 56 58" fill="none" xmlns="http://www.w3.org/2000/svg">
<path id="Vector" d="M27.7494 45.875C28.7256 45.875 29.5511 45.5281 30.226 44.8342C30.9009 44.1403 31.2374 43.2926 31.2356 42.291C31.2356 41.2875 30.899 40.4388 30.226 39.745C29.5529 39.0511 28.7274 38.7051 27.7494 38.707C26.7733 38.707 25.9488 39.054 25.2757 39.7478C24.6026 40.4417 24.2652 41.2894 24.2633 42.291C24.2633 43.2945 24.6008 44.1432 25.2757 44.8371C25.9506 45.5309 26.7752 45.8769 27.7494 45.875ZM25.2394 34.8363H30.3989C30.3989 33.2594 30.5737 32.0169 30.9232 31.109C31.2727 30.201 32.26 28.9586 33.885 27.3816C35.0935 26.1392 36.0464 24.956 36.7436 23.8321C37.4408 22.7081 37.7894 21.3586 37.7894 19.7836C37.7894 17.1076 36.8366 15.0527 34.9308 13.6191C33.0251 12.1855 30.7707 11.4688 28.1678 11.4688C25.5183 11.4688 23.369 12.1855 21.7199 13.6191C20.0707 15.0527 18.9198 16.773 18.2672 18.7801L22.8689 20.6437C23.1013 19.7836 23.6247 18.8518 24.439 17.8482C25.2534 16.8447 26.4963 16.343 28.1678 16.343C29.6552 16.343 30.7707 16.7616 31.5144 17.5988C32.2582 18.436 32.63 19.3554 32.63 20.357C32.63 21.3128 32.3511 22.2092 31.7933 23.0465C31.2356 23.8837 30.5383 24.6597 29.7017 25.3746C27.6565 27.2383 26.4015 28.648 25.9367 29.6037C25.4719 30.5594 25.2394 32.3036 25.2394 34.8363ZM27.8889 57.3438C24.0309 57.3438 20.4054 56.5916 17.0122 55.0873C13.6191 53.583 10.6675 51.5396 8.1575 48.9572C5.6475 46.3768 3.66088 43.3423 2.19764 39.8539C0.734408 36.3655 0.00185926 32.6382 0 28.6719C0 24.7056 0.732548 20.9783 2.19764 17.4898C3.66274 14.0014 5.64936 10.967 8.1575 8.38652C10.6675 5.80606 13.6191 3.76366 17.0122 2.25934C20.4054 0.755026 24.0309 0.00191146 27.8889 0C31.7469 0 35.3724 0.753115 38.7656 2.25934C42.1587 3.76557 45.1103 5.80797 47.6203 8.38652C50.1303 10.967 52.1178 14.0014 53.5829 17.4898C55.048 20.9783 55.7796 24.7056 55.7778 28.6719C55.7778 32.6382 55.0452 36.3655 53.5801 39.8539C52.115 43.3423 50.1284 46.3768 47.6203 48.9572C45.1103 51.5377 42.1587 53.581 38.7656 55.0873C35.3724 56.5935 31.7469 57.3457 27.8889 57.3438ZM27.8889 51.6094C34.1174 51.6094 39.3931 49.3873 43.7158 44.9432C48.0386 40.499 50.2 35.0753 50.2 28.6719C50.2 22.2685 48.0386 16.8447 43.7158 12.4006C39.3931 7.95644 34.1174 5.73438 27.8889 5.73438C21.6604 5.73438 16.3847 7.95644 12.0619 12.4006C7.73917 16.8447 5.57778 22.2685 5.57778 28.6719C5.57778 35.0753 7.73917 40.499 12.0619 44.9432C16.3847 49.3873 21.6604 51.6094 27.8889 51.6094Z" fill="#F8F8F8"/>
</svg>
